<svg width="20" height="20" viewBox="0 0 20 20" fill="none" xmlns="http://www.w3.org/2000/svg">
<path d="M10.0001 0.041748C4.47724 0.041748 0 4.51898 0 10.0418C0 14.9951 3.60522 19.0973 8.33225 19.8917V12.1281H5.91994V9.33429H8.33225V7.27425C8.33225 4.88402 9.79213 3.58147 11.9247 3.58147C12.9461 3.58147 13.8238 3.65758 14.0786 3.6911V6.18954L12.5995 6.19025C11.44 6.19025 11.2165 6.74114 11.2165 7.54982V9.33286H13.9832L13.6223 12.1267H11.2165V19.9585C16.1642 19.3563 20 15.1496 20 10.0389C20 4.51898 15.5228 0.041748 10.0001 0.041748Z" fill="#010002"/>
</svg>
