<svg width="292" height="28" viewBox="0 0 292 28" fill="none" xmlns="http://www.w3.org/2000/svg">
<path d="M1.18565 23H11.5537V22.456L8.22565 22.04C7.26565 21.912 6.56165 21.176 6.56165 20.184V4.856L19.7457 23H21.1857V3.352C21.1857 2.39199 21.8577 1.592 22.8177 1.46399L25.2497 1.144V0.599995H14.8817V1.144L18.2097 1.56C19.1697 1.688 19.8737 2.424 19.8737 3.41599V17.688L10.3057 4.248C7.64966 0.535995 5.02565 0.599995 0.545654 0.599995V1.144C2.49765 1.432 4.41765 2.168 5.24965 3.64V20.248C5.24965 21.208 4.57765 22.008 3.61765 22.136L1.18565 22.456V23Z" fill="white"/>
<path d="M43.2887 23.512C50.2007 23.512 55.2247 18.776 55.2247 11.8C55.2247 4.824 50.2007 0.119995 43.2887 0.119995C36.3767 0.119995 31.3207 4.824 31.3207 11.8C31.3207 18.776 36.3767 23.512 43.2887 23.512ZM43.3207 22.392C37.5607 22.392 35.2247 17.304 35.2247 11.064C35.2247 5.24 37.6887 1.24 43.2567 1.24C48.8887 1.24 51.2887 6.23199 51.2887 12.28C51.2887 18.296 49.1127 22.392 43.3207 22.392Z" fill="white"/>
<path d="M72.2754 12.184H72.5314C75.8274 21.304 81.7154 25.4 84.9474 27.416C80.4034 21.208 78.2594 17.112 76.2114 11.896C80.0834 11.192 82.0994 9.368 82.0994 6.23199C82.0994 2.2 78.5794 0.599995 71.9554 0.599995H61.9394V1.144L63.9874 1.4C64.9474 1.528 65.6514 2.264 65.6514 3.25599V20.344C65.6514 21.336 64.9474 22.072 63.9874 22.2L61.9394 22.456V23H73.0754V22.456L71.0274 22.2C70.0674 22.072 69.3634 21.336 69.3634 20.344V12.184H72.2754ZM69.3634 1.72H72.7554C76.9794 1.72 78.7074 3.224 78.7074 6.39199C78.7074 9.56 76.7554 11.064 72.2434 11.064H69.3634V1.72Z" fill="white"/>
<path d="M91.0269 23H101.971C109.907 23 114.995 18.968 114.995 11.864C114.995 4.40799 109.907 0.599995 101.971 0.599995H91.0269V1.144L93.0749 1.4C94.0349 1.528 94.7389 2.264 94.7389 3.25599V20.344C94.7389 21.336 94.0349 22.072 93.0749 22.2L91.0269 22.456V23ZM100.115 21.88C99.1549 21.88 98.4509 21.336 98.4509 20.344V1.72H101.459C106.195 1.72 111.123 3.73599 111.123 11.864C111.123 19.384 106.771 21.88 101.459 21.88H100.115Z" fill="white"/>
<path d="M122.021 23H133.157V22.456L131.109 22.2C130.149 22.072 129.445 21.336 129.445 20.344V3.25599C129.445 2.264 130.149 1.528 131.109 1.4L133.157 1.144V0.599995H122.021V1.144L124.069 1.4C125.029 1.528 125.733 2.264 125.733 3.25599V20.344C125.733 21.336 125.029 22.072 124.069 22.2L122.021 22.456V23Z" fill="white"/>
<path d="M152.154 23.48C155.866 23.48 159.834 22.072 162.426 19.64V17.72C159.93 20.056 156.506 21.24 153.114 21.24C148.218 21.24 144.218 17.816 144.218 11.8C144.218 5.49599 146.97 1.24 152.154 1.24C156.826 1.24 159.29 5.17599 158.714 12.088H159.578L161.498 3.54399C159.674 1.46399 154.714 0.119995 152.154 0.119995C144.922 0.119995 140.186 4.824 140.186 11.8C140.186 18.808 144.986 23.48 152.154 23.48Z" fill="white"/>
<path d="M193.9 12.184H194.156C197.452 21.304 203.34 25.4 206.572 27.416C202.028 21.208 199.884 17.112 197.836 11.896C201.708 11.192 203.724 9.368 203.724 6.23199C203.724 2.2 200.204 0.599995 193.58 0.599995H183.564V1.144L185.612 1.4C186.572 1.528 187.276 2.264 187.276 3.25599V20.344C187.276 21.336 186.572 22.072 185.612 22.2L183.564 22.456V23H194.7V22.456L192.652 22.2C191.692 22.072 190.988 21.336 190.988 20.344V12.184H193.9ZM190.988 1.72H194.38C198.604 1.72 200.332 3.224 200.332 6.39199C200.332 9.56 198.38 11.064 193.868 11.064H190.988V1.72Z" fill="white"/>
<path d="M224.276 23.512C231.188 23.512 236.212 18.776 236.212 11.8C236.212 4.824 231.188 0.119995 224.276 0.119995C217.364 0.119995 212.308 4.824 212.308 11.8C212.308 18.776 217.364 23.512 224.276 23.512ZM224.308 22.392C218.548 22.392 216.212 17.304 216.212 11.064C216.212 5.24 218.676 1.24 224.244 1.24C229.876 1.24 232.276 6.23199 232.276 12.28C232.276 18.296 230.1 22.392 224.308 22.392Z" fill="white"/>
<path d="M253.568 23.48C258.368 23.48 261.76 21.048 261.76 17.528C261.76 8.696 248.736 9.592 248.736 5.17599C248.736 2.904 250.816 1.24 254.24 1.24C257.856 1.24 259.552 3.63999 259.904 8.91999H260.768L261.088 1.65599C259.2 0.823996 256.8 0.119995 254.24 0.119995C249.248 0.119995 246.144 2.35999 246.144 5.49599C246.144 14.104 259.2 12.888 259.2 18.008C259.2 20.568 256.832 22.36 253.888 22.36C250.08 22.36 248.16 19.736 247.456 13.816H246.592L245.952 21.4C248.16 22.616 250.208 23.48 253.568 23.48Z" fill="white"/>
<path d="M269.764 23H290.5L291.46 15.448H290.916C288.964 20.504 287.268 21.88 284.42 21.88H278.852C277.892 21.88 277.188 21.336 277.188 20.344V12.184H284.58C285.444 12.184 286.308 12.792 286.372 13.624L286.724 17.368H287.268V6.2H286.724L286.372 9.624C286.276 10.488 285.444 11.064 284.58 11.064H277.188V1.72H283.78C286.148 1.72 288.548 2.83999 289.828 8.18399H290.372L289.732 0.599995H269.764V1.144L271.812 1.4C272.772 1.528 273.476 2.264 273.476 3.25599V20.344C273.476 21.336 272.772 22.072 271.812 22.2L269.764 22.456V23Z" fill="white"/>
</svg>
